<svg width="108" height="122" viewBox="0 0 108 122" fill="none" xmlns="http://www.w3.org/2000/svg">
<path d="M52.4999 0C31.7999 0 14.9999 16.8 14.9999 37.5C14.9999 58.2 31.7999 75 52.4999 75C73.1999 75 89.9999 58.2 89.9999 37.5C89.9999 16.8 73.1999 0 52.4999 0ZM57.7874 60.3375V67.5H47.7749V60.2625C41.3624 58.9125 35.9249 54.7875 35.5124 47.5125H42.8624C43.2374 51.45 45.9374 54.525 52.7999 54.525C60.1499 54.525 61.7999 50.85 61.7999 48.5625C61.7999 45.45 60.1499 42.525 51.7874 40.5375C42.4874 38.2875 36.1124 34.4625 36.1124 26.775C36.1124 20.325 41.3249 16.125 47.7749 14.7375V7.5H57.7874V14.8125C64.7624 16.5 68.2499 21.7875 68.4749 27.525H61.1249C60.9374 23.3625 58.7249 20.5125 52.7999 20.5125C47.1749 20.5125 43.7999 23.0625 43.7999 26.6625C43.7999 29.8125 46.2374 31.875 53.8124 33.825C61.3874 35.775 69.4874 39.0375 69.4874 48.4875C69.4499 55.35 64.3124 59.1 57.7874 60.3375Z" fill="#00F59B"/>
<path d="M1 111C1 116.523 5.47715 121 11 121H97C102.523 121 107 116.523 107 111V93C107 87.4772 102.523 83 97 83H11C5.47715 83 1 87.4772 1 93V111Z" stroke="white" stroke-width="2"/>
<path d="M14.1559 90.0836H16.3959V97.0556H16.5079C16.9372 96.5143 17.4785 96.0943 18.1319 95.7956C18.8039 95.4969 19.5319 95.3476 20.3159 95.3476C22.1265 95.3476 23.4799 95.9263 24.3759 97.0836C25.2905 98.2409 25.7479 100.033 25.7479 102.46C25.7479 104.905 25.1505 106.762 23.9559 108.032C22.7612 109.301 21.0812 109.936 18.9159 109.936C17.8705 109.936 16.9185 109.824 16.0599 109.6C15.2199 109.376 14.5852 109.133 14.1559 108.872V90.0836ZM19.9239 97.3076C18.9905 97.3076 18.2345 97.5689 17.6559 98.0916C17.0772 98.6143 16.6572 99.3516 16.3959 100.304V107.36C16.7505 107.565 17.1799 107.724 17.6839 107.836C18.1879 107.929 18.7105 107.976 19.2519 107.976C20.5212 107.976 21.5292 107.528 22.2759 106.632C23.0412 105.736 23.4239 104.336 23.4239 102.432C23.4239 101.704 23.3585 101.022 23.2279 100.388C23.0972 99.7529 22.8919 99.2116 22.6119 98.7636C22.3319 98.3156 21.9679 97.9609 21.5199 97.6996C21.0905 97.4383 20.5585 97.3076 19.9239 97.3076ZM31.293 95.6836V103.664C31.293 104.392 31.3303 105.036 31.405 105.596C31.4983 106.137 31.6476 106.594 31.853 106.968C32.0583 107.322 32.3383 107.593 32.693 107.78C33.0476 107.966 33.4956 108.06 34.037 108.06C34.541 108.06 34.989 107.985 35.381 107.836C35.773 107.668 36.1183 107.444 36.417 107.164C36.7343 106.884 37.005 106.566 37.229 106.212C37.4716 105.838 37.6676 105.446 37.817 105.036V95.6836H40.057V105.708C40.057 106.38 40.0756 107.08 40.113 107.808C40.169 108.517 40.253 109.142 40.365 109.684H38.825L38.265 107.472H38.125C37.6956 108.2 37.117 108.806 36.389 109.292C35.661 109.777 34.737 110.02 33.617 110.02C32.8703 110.02 32.2076 109.926 31.629 109.74C31.069 109.572 30.593 109.264 30.201 108.816C29.8276 108.368 29.5383 107.77 29.333 107.024C29.1463 106.258 29.053 105.297 29.053 104.14V95.6836H31.293ZM55.1227 104.868C55.1227 105.82 55.1321 106.688 55.1507 107.472C55.1694 108.237 55.2534 108.993 55.4027 109.74H53.8907L53.3307 107.752H53.2187C52.8454 108.405 52.3041 108.946 51.5947 109.376C50.8854 109.805 50.0547 110.02 49.1027 110.02C47.2361 110.02 45.8454 109.432 44.9307 108.256C44.0347 107.08 43.5867 105.241 43.5867 102.74C43.5867 100.35 44.1467 98.5396 45.2667 97.3076C46.4054 96.0569 47.9641 95.4316 49.9427 95.4316C50.6334 95.4316 51.1747 95.4689 51.5667 95.5436C51.9774 95.6183 52.4161 95.7396 52.8827 95.9076V90.0836H55.1227V104.868ZM49.4667 108.06C50.4187 108.06 51.1747 107.817 51.7347 107.332C52.2947 106.828 52.6774 106.072 52.8827 105.064V98.1196C52.5467 97.8583 52.1641 97.6716 51.7347 97.5596C51.3054 97.4476 50.7361 97.3916 50.0267 97.3916C48.7387 97.3916 47.7307 97.8209 47.0027 98.6796C46.2747 99.5196 45.9107 100.873 45.9107 102.74C45.9107 103.505 45.9667 104.214 46.0787 104.868C46.2094 105.521 46.4147 106.081 46.6947 106.548C46.9747 107.014 47.3387 107.388 47.7867 107.668C48.2534 107.929 48.8134 108.06 49.4667 108.06ZM70.1611 110.328C70.1611 112.138 69.6758 113.473 68.7051 114.332C67.7531 115.19 66.3345 115.62 64.4491 115.62C63.3291 115.62 62.4238 115.545 61.7331 115.396C61.0611 115.265 60.4825 115.088 59.9971 114.864L60.5851 112.96C61.0145 113.128 61.4905 113.286 62.0131 113.436C62.5358 113.585 63.2171 113.66 64.0571 113.66C64.8411 113.66 65.4758 113.585 65.9611 113.436C66.4651 113.305 66.8665 113.072 67.1651 112.736C67.4638 112.418 67.6691 111.998 67.7811 111.476C67.8931 110.972 67.9491 110.365 67.9491 109.656V108.312H67.8371C67.4638 108.853 66.9878 109.273 66.4091 109.572C65.8305 109.852 65.0745 109.992 64.1411 109.992C62.2558 109.992 60.8651 109.404 59.9691 108.228C59.0918 107.052 58.6531 105.222 58.6531 102.74C58.6531 100.35 59.2225 98.5396 60.3611 97.3076C61.4998 96.0569 63.1798 95.4316 65.4011 95.4316C66.4651 95.4316 67.3705 95.5156 68.1171 95.6836C68.8825 95.8516 69.5638 96.0476 70.1611 96.2716V110.328ZM64.5331 108.032C65.4851 108.032 66.2318 107.798 66.7731 107.332C67.3145 106.846 67.6971 106.1 67.9211 105.092V97.9236C67.1745 97.5689 66.2225 97.3916 65.0651 97.3916C63.7958 97.3916 62.7971 97.8209 62.0691 98.6796C61.3411 99.5383 60.9771 100.882 60.9771 102.712C60.9771 103.496 61.0425 104.214 61.1731 104.868C61.3038 105.521 61.5091 106.081 61.7891 106.548C62.0691 107.014 62.4331 107.378 62.8811 107.64C63.3291 107.901 63.8798 108.032 64.5331 108.032ZM84.6962 108.564C84.1362 109.012 83.4269 109.366 82.5682 109.628C81.7282 109.889 80.8322 110.02 79.8802 110.02C78.8162 110.02 77.8922 109.852 77.1082 109.516C76.3242 109.161 75.6802 108.666 75.1762 108.032C74.6722 107.378 74.2989 106.604 74.0562 105.708C73.8135 104.812 73.6922 103.804 73.6922 102.684C73.6922 100.294 74.2242 98.4743 75.2882 97.2236C76.3522 95.9729 77.8735 95.3476 79.8522 95.3476C80.4869 95.3476 81.1215 95.4223 81.7562 95.5716C82.3909 95.7023 82.9602 95.9636 83.4642 96.3556C83.9682 96.7476 84.3789 97.3076 84.6962 98.0356C85.0135 98.7449 85.1722 99.6876 85.1722 100.864C85.1722 101.48 85.1162 102.161 85.0042 102.908H76.0162C76.0162 103.729 76.1002 104.457 76.2682 105.092C76.4362 105.726 76.6975 106.268 77.0522 106.716C77.4069 107.145 77.8642 107.481 78.4242 107.724C79.0029 107.948 79.7029 108.06 80.5242 108.06C81.1589 108.06 81.7935 107.948 82.4282 107.724C83.0629 107.5 83.5389 107.238 83.8562 106.94L84.6962 108.564ZM79.8802 97.3076C78.7789 97.3076 77.8922 97.5969 77.2202 98.1756C76.5669 98.7543 76.1749 99.7436 76.0442 101.144H82.9882C82.9882 99.7249 82.7175 98.7356 82.1762 98.1756C81.6349 97.5969 80.8695 97.3076 79.8802 97.3076ZM86.8469 95.6836H89.0309V92.9116L91.2709 92.2676V95.6836H95.0789V97.6436H91.2709V105.4C91.2709 106.37 91.3923 107.061 91.6349 107.472C91.8776 107.864 92.2883 108.06 92.8669 108.06C93.3523 108.06 93.7629 108.013 94.0989 107.92C94.4349 107.808 94.8083 107.668 95.2189 107.5L95.7229 109.208C95.2189 109.45 94.6683 109.646 94.0709 109.796C93.4736 109.945 92.8296 110.02 92.1389 110.02C91.0003 110.02 90.1976 109.702 89.7309 109.068C89.2643 108.414 89.0309 107.332 89.0309 105.82V97.6436H86.8469V95.6836Z" fill="white"/>
</svg>
